/* XPM */
static char *output_onlinepngtools__4_1647005510[] = {
/* columns rows colors chars-per-pixel */
"32 32 164 2 ",
"   c None",
".  c #0C0C0C",
"X  c gray8",
"o  c #161414",
"O  c #161616",
"+  c gray9",
"@  c #191414",
"#  c #191919",
"$  c #1C1B1B",
"%  c #1E1B1B",
"&  c #221E1C",
"*  c #231E1E",
"=  c #26201F",
"-  c #27201F",
";  c #202020",
":  c #222222",
">  c #272020",
",  c #2B2322",
"<  c #2A2525",
"1  c gray18",
"2  c #322625",
"3  c #362927",
"4  c #302928",
"5  c #362928",
"6  c #372928",
"7  c #392A29",
"8  c #3A2B29",
"9  c #313030",
"0  c gray20",
"q  c #353535",
"w  c #373737",
"e  c #3B3534",
"r  c #383635",
"t  c #393939",
"y  c #3A3A3A",
"u  c #3C3C3C",
"i  c #402E2C",
"p  c #432F2D",
"a  c #44302E",
"s  c #473533",
"d  c #4A3331",
"f  c #4B3432",
"g  c #4F3634",
"h  c #463D3C",
"j  c #4B3E3D",
"k  c #503734",
"l  c #523835",
"z  c #543936",
"x  c #553936",
"c  c #563A37",
"v  c #573A37",
"b  c #513A38",
"n  c #573B38",
"m  c #573E3C",
"M  c #583B38",
"N  c #5C3D3A",
"B  c #5D3E3A",
"V  c #5D3E3B",
"C  c #5E3E3B",
"Z  c #5F3F3B",
"A  c #59403D",
"S  c #5D413E",
"D  c #61403C",
"F  c #61403D",
"G  c #62403C",
"H  c #62403D",
"J  c #63413D",
"K  c #64413D",
"L  c #65423E",
"P  c #66423F",
"I  c #66433F",
"U  c #464545",
"Y  c #554341",
"T  c #584543",
"R  c #5A4644",
"E  c #5C4745",
"W  c #5D4A47",
"Q  c #5C4A48",
"!  c #52504F",
"~  c #585858",
"^  c gray36",
"/  c #674743",
"(  c #694440",
")  c #694441",
"_  c #6A4541",
"`  c #684743",
"'  c #6D4642",
"]  c #6E4743",
"[  c #614947",
"{  c #694845",
"}  c #6B4845",
"|  c #6F4844",
" . c #6E4B47",
".. c #604C4A",
"X. c #6B4F4C",
"o. c #6C4F4D",
"O. c #704844",
"+. c #714C49",
"@. c #68514E",
"#. c #6B514E",
"$. c #71524F",
"%. c #605352",
"&. c #635453",
"*. c #665654",
"=. c #6C5350",
"-. c #6F5450",
";. c #6F5451",
":. c #6E5552",
">. c #625D5D",
",. c #655F5E",
"<. c #725350",
"1. c #705451",
"2. c #725552",
"3. c #745754",
"4. c #765754",
"5. c #725855",
"6. c #735A57",
"7. c #765855",
"8. c #745956",
"9. c #755956",
"0. c #795956",
"q. c #785A57",
"w. c #775F5D",
"e. c #7B5D5A",
"r. c #77615F",
"t. c #676767",
"y. c #6F6463",
"u. c #696464",
"i. c #6D6D6D",
"p. c #776461",
"a. c #706564",
"s. c #7E6562",
"d. c #7B6664",
"f. c #756867",
"g. c #726969",
"h. c #776968",
"j. c #756F6E",
"k. c #7B6B69",
"l. c #796D6C",
"z. c #7F716F",
"x. c #727272",
"c. c #7A7170",
"v. c #7A7473",
"b. c #7B7574",
"n. c #7E7675",
"m. c #7E7777",
"M. c #7C7C7C",
"N. c #807776",
"B. c #827877",
"V. c #877977",
"C. c #887977",
"Z. c #837978",
"A. c #847C7B",
"S. c #877D7C",
"D. c #8A7A78",
"F. c #8B7A79",
"G. c #887E7D",
"H. c #8C7E7D",
"J. c #8C7F7D",
"K. c #818181",
"L. c #8F8685",
"P. c #8F8786",
"I. c #928887",
"U. c #948B8A",
/* pixels */
"                    # # # # # # # # # #                         ",
"                    q q q q q q q r y y                         ",
"                + q ^ i.i.i.i.i.i.x.M.i.y #                     ",
"                q U u.b.n.n.N.Z.Z.G.P.n.! y                     ",
"            # 0 ^ u.%...@.1.3.7.7.7.7.p.m.i.y #                 ",
"            0 U u.a.R M S I ' O.| ' P :.Z.m.! y                 ",
"        # 0 ^ u.%.R S G G P ' O.O.' ( / 1.p.n.i.y #             ",
"        # q i.v.W l B K I I ' O.O.| ( G P 6.U.K.y #             ",
"        # q i.v.Q b Z P ' ' O.O.O.O.O.I P 6.U.K.u #             ",
"        # 1 ~ t.Q Q S G I ' ' ' ' ' ' +.1.p.m.t.q #             ",
"        # * 1 U u.a.E b G / P / I I P 1.C.m.! 0 : #             ",
"        # # * q ,.g.*...@.#.#.#.#.:.5.d.H.v.h - % #             ",
"        # * 1 s Y &.g.b.N.N.N.N.B.A.L.J.d.@.A a > #             ",
"        # < A R z R g.Z.V.N.N.N.B.G.I.D.1.` $.W 4 #             ",
"        # 4 >.y.T m o.7.4.4.:.:.3.q.e.3.} :.V.j.r #             ",
"        # 0 >.g.&.[ } O.| ' P P ] O.O.+.1.d.J.j.r #             ",
"        # < j *.g.h.$.] O.] I I ' O.O.0.F.J.d.W 4 #             ",
"        # , 8 T a.l.r.5.7.7.#.$.3.3.$.N.H.C.$.k , #             ",
"        # - a b T *.z.B.Z.B.N.N.N.N.V.N.r.#./ k , #             ",
"        # - 8 g x [ h.Z.Z.B.m.B.N.V.V.r.#.J J k , #             ",
"        # - i x J } $.7.3.3.$.:.4.4.0.$.' K J k , #             ",
"        X * 7 d Z I ] O.O.] I I I O.O.O.P Z x a - +             ",
"          X & 2 d Z ` ] O.] I I O.O.O.I P x 8 - @               ",
"            X & 3 d K ' ] I K P I O.] I v a - X                 ",
"              X * 3 x I I I P J G I I M 8 - @                   ",
"                X - a k k g k k z g z a - X                     ",
"                  @ - , , , , , , , , - @                       ",
"                    X + + + + + + + + X                         ",
"                      . . . . . . . .                           ",
"                                                                ",
"                                                                ",
"                                                                "
};
