/* XPM */
static char *output_onlinepngtools__11_1647012942[] = {
/* columns rows colors chars-per-pixel */
"32 32 92 1 ",
"  c #050507",
". c #0B0C0E",
"X c #0E0C0C",
"o c #0C0C0E",
"O c #0D0E0E",
"+ c #110E0E",
"@ c #141010",
"# c #201916",
"$ c #25141B",
"% c #29201B",
"& c #2B221D",
"* c #3A1B20",
"= c #3B1B20",
"- c #3D1B20",
"; c #1E2022",
": c #1E2223",
"> c #202223",
", c #202323",
"< c #222325",
"1 c #222426",
"2 c #232426",
"3 c #222528",
"4 c #2A2B2D",
"5 c #322923",
"6 c #352923",
"7 c #332A25",
"8 c #3B2D27",
"9 c #3B2F27",
"0 c #392E29",
"q c #3D312B",
"w c #2F3030",
"e c #323232",
"r c #39393A",
"t c #3A3C3E",
"y c #3E3E3F",
"u c #3E3F3F",
"i c #42332B",
"p c #43332C",
"a c #43352C",
"s c #45362D",
"d c #4E3E33",
"f c #503E36",
"g c #544237",
"h c #58463A",
"j c #5D473D",
"k c #5D4B3D",
"l c #5E4B3D",
"z c #3E3F40",
"x c #3F4041",
"c c #3F4142",
"v c #404041",
"b c #414242",
"n c #434446",
"m c #444446",
"M c #444647",
"N c #464749",
"B c #48494A",
"V c #49494B",
"C c #4B4B4D",
"Z c #4A4D4F",
"A c #4D4E50",
"S c #4F5052",
"D c #505052",
"F c #505152",
"G c #525353",
"H c #535455",
"J c #555657",
"K c #565758",
"L c #57585B",
"P c #585A5B",
"I c #5D5E5F",
"U c #664E43",
"Y c #635041",
"T c #675243",
"R c #685244",
"E c #685344",
"W c #685444",
"Q c #6C5447",
"! c #735D4C",
"~ c #745D4C",
"^ c #755E4C",
"/ c #7E6552",
"( c #796A5F",
") c #616263",
"_ c #656667",
"` c #68696A",
"' c #686A6B",
"] c #6C6D6E",
"[ c #6E6E70",
"{ c #6F7072",
"} c #727373",
"| c #757677",
/* pixels */
"S;S__F[;Z{H'{|JJcJHSCzz;Az[]P;;A",
"y;SSCyF;gFHccccczccczzz;zzFAn;;z",
";;e2;;e;;;;;::::;<::;;;;ze;;<e;;",
"ye;0aa;$----********-*-$;;pp0;eF",
"F;ijUUp $$$$$$$$$$$$$$$$ pUUjp;A",
"F;ijQ/p                  p/Qjp;F",
"`w<qg/p898999989899999880i/gq>ez",
"]m;0shRRTWWWWWWWWWWWWRWRTRhs0;rC",
")V;0sd(^^^^^^^^^~~~~~~!~!(gi0;yF",
"Hv;7ak`kkkkkkkkklllkkkkkk`ki5;yS",
"]A;.+6656666666666666666666+.;yS",
"Fy;.+6U/6              6UUi@.;yS",
"Fz;.  6U6              6Y6  .;yy",
"yz;.  66666566666666666666  .;yy",
"yz;o  6fU}UUYYYYYYTYYYY}Y6  .;yS",
"Az;o   666666666666666666   .;yS",
"Zy;.   5di6+        +6ai5   .;yZ",
"Fy;.    5a6+        +6i6    .;yF",
"Zv;.     65555775555556     o;yF",
"Zg;.     &55@      #&5%     o>vZ",
"cA:.      &X        X%      o;yZ",
"zA:.                        .;zv",
"Az:.                        o:zF",
"n4:.                        .;vD",
"z;;.                        .;cH",
"z3;.                        .:cS",
"Az:.                        o;vM",
"Jz:.                        .2vv",
"z;;.                        o:Mb",
"<<:;:33;;;2;3:<::<3::::3:2:;:22:",
"K:|II|HKnnnnNLnnKKLLPPnPNMMMMM3M",
"m:3zNHNm2;<<2233NMMMMMMM323ZF33N"
};
