/* XPM */
static char *output_onlinepngtools1646654343[] = {
/* columns rows colors chars-per-pixel */
"32 32 33 1 ",
"  c #59413E",
". c #574140",
"X c #534045",
"o c #514047",
"O c #584245",
"+ c #554248",
"@ c #5A4448",
"# c #5D4549",
"$ c #5C454A",
"% c #604541",
"& c #614645",
"* c #664844",
"= c #6A4A46",
"- c #624749",
"; c #60474B",
": c #664A4B",
"> c #6F4D48",
", c #6D4D4B",
"< c #704E4B",
"1 c #734F4A",
"2 c #714F4C",
"3 c #77514C",
"4 c #78524D",
"5 c #7C544F",
"6 c #735050",
"7 c #7C5551",
"8 c #7E5653",
"9 c #805651",
"0 c #815651",
"q c #835852",
"w c #875A54",
"e c #895B55",
"r c #8C5C56",
/* pixels */
"o@,433333333333333333333333,Oooo",
"@-,3333333333333333333333342:$+o",
",<3333333333333333333333333476$o",
"3333333333333333333333333335e8-o",
"3333333333333333333333333335w8$o",
"3333333333333333333333333335w8;o",
"3333333333333333333333333337e8;o",
"3333333333333333333333333337w8;o",
"3333333333333333333333333335w7;o",
"3333333333333333333333333335w7;o",
"3333333333333333333333333335e8;o",
"3333333333333333333333333335e8;o",
"3333333333333333333333333345w8;o",
"3333333333333333333333333345w7;o",
"3333333333333333333333333345e8;o",
"33333333333333333333333333<7w8;o",
"3333333333333333333333333335w0-o",
"3333333333333333333333333335w7$o",
"3333333333333333333333333335e8;o",
"3333333333333333333333333335e9;o",
"3333333333333333333333333334w8$o",
"3333333333333333333333333337w8;o",
"3333333333333333333333333337e8;o",
"3333333333333333333333333338w9;o",
"3333333333333333333333333335w7$o",
"3333333333333333333333333350w0;o",
"33333333333333333333333337qer9;o",
"><455555555555555555555570eeq3$o",
"&=5wwwwwwwwwwwwwwwwweeewewew<&Oo",
" &4700000700000000700070799<&XXo",
"X.&************************&OXoo",
"oo                          Xooo"
};
