/* XPM */
static char *output_onlinepngtools__8_1647006500[] = {
/* columns rows colors chars-per-pixel */
"32 32 243 2 ",
"   c None",
".  c #040404",
"X  c #050504",
"o  c gray2",
"O  c #060606",
"+  c #070707",
"@  c #0B0B07",
"#  c #0C0B07",
"$  c #0E0C07",
"%  c gray3",
"&  c #090909",
"*  c #241E0B",
"=  c #2B240D",
"-  c #372E0E",
";  c #3E320D",
":  c #3F330D",
">  c #3F330E",
",  c #262112",
"<  c #2E2915",
"1  c #352D14",
"2  c #393013",
"3  c #3E3414",
"4  c #3E3516",
"5  c #423510",
"6  c #443916",
"7  c #4E3F12",
"8  c #4A3E17",
"9  c #4A3E18",
"0  c #4B3F19",
"q  c #4E4015",
"w  c #4F4117",
"e  c #5D4D17",
"r  c #544519",
"t  c #51451E",
"y  c #594918",
"u  c #59491B",
"i  c #5E4D19",
"p  c #685417",
"a  c #60501B",
"s  c #63521B",
"d  c #705B1B",
"f  c #7D6517",
"g  c #594B20",
"h  c #645627",
"j  c #6E5B22",
"k  c #6E5C26",
"l  c #7A6627",
"z  c #7D6D31",
"x  c #8E731B",
"c  c #997B1C",
"v  c #866E24",
"b  c #886F20",
"n  c #8F7628",
"m  c #8C762F",
"M  c #917620",
"N  c #937721",
"B  c #997C22",
"V  c #9C7F20",
"C  c #90772A",
"Z  c #947B2D",
"A  c #8E7730",
"S  c #8D7A36",
"D  c #927F33",
"F  c #A2821A",
"G  c #A4841E",
"H  c #A9881E",
"J  c #9C812C",
"K  c #A98820",
"L  c #AC8C25",
"P  c #A38528",
"I  c #A2852D",
"U  c #A4872F",
"Y  c #A78929",
"T  c #AC8D2A",
"R  c #AE8F2B",
"E  c #A88A2D",
"W  c #AD8E2C",
"Q  c #AD8E2D",
"!  c #B08F29",
"~  c #B39023",
"^  c #B5942E",
"/  c #B89428",
"(  c #B8962C",
")  c #BF9B2A",
"_  c #A48833",
"`  c #A38E35",
"'  c #AD8F32",
"]  c #A08938",
"[  c #AE9735",
"{  c #B09233",
"}  c #B29332",
"|  c #B39436",
" . c #B99934",
".. c #BA9A35",
"X. c #B09338",
"o. c #B69838",
"O. c #BC9D38",
"+. c #BF9F38",
"@. c #BA9C3E",
"#. c #BB9E3E",
"$. c #BB9E3F",
"%. c #BEA53E",
"&. c #C09C2A",
"*. c #CBA735",
"=. c #CBA636",
"-. c #C0A038",
";. c #C4A33B",
":. c #C0A13C",
">. c #C6A43D",
",. c #C7A63D",
"<. c #CAA739",
"1. c #C9A73E",
"2. c #CFAB3A",
"3. c #C9A83E",
"4. c #CAA83E",
"5. c #CBA93E",
"6. c #CFAC3D",
"7. c #D0AC3C",
"8. c #D0AD3D",
"9. c #D1AD3F",
"0. c #CAB03F",
"q. c #BDA847",
"w. c #C8A742",
"e. c #C4A841",
"r. c #C5AA41",
"t. c #CAA840",
"y. c #CBAA42",
"u. c #CEAC41",
"i. c #CAA944",
"p. c #C8A946",
"a. c #CCAB47",
"s. c #CEAD47",
"d. c #D2AF41",
"f. c #D0AD42",
"g. c #D1AF46",
"h. c #CDB34A",
"j. c #CEB748",
"k. c #D5B244",
"l. c #D5B245",
"z. c #D6B346",
"x. c #D3B944",
"c. c #D2B048",
"v. c #D5B34B",
"b. c #D0B64D",
"n. c #DAB74A",
"m. c #D1B848",
"M. c #D4BC4B",
"N. c #DBB84B",
"B. c #DAB84C",
"V. c #DABC4F",
"C. c #DDBF4F",
"Z. c #D2BA50",
"A. c #DFBE55",
"S. c #E2BB43",
"D. c #E3BC41",
"F. c #E2BE4F",
"G. c #D3C14A",
"H. c #D7C04E",
"J. c #DDC34B",
"K. c #DAC450",
"L. c #DDC655",
"P. c #DEC951",
"I. c #E9C146",
"U. c #E3C34F",
"Y. c #E7C24E",
"T. c #EBC348",
"R. c #EAC44C",
"E. c #EEC74F",
"W. c #F6CB47",
"Q. c #F4CC4D",
"!. c #E3C155",
"~. c #E3C257",
"^. c #E2C755",
"/. c #EBC751",
"(. c #EDC650",
"). c #EDC750",
"_. c #EDC751",
"`. c #E5CB53",
"'. c #E0CA55",
"]. c #E4CD55",
"[. c #E7CD56",
"{. c #EEC955",
"}. c #EBCE55",
"|. c #E5C358",
" X c #EFCB5A",
".X c #F1CC58",
"XX c #F0CD5D",
"oX c #F0CD5F",
"OX c #E6D157",
"+X c #E9D255",
"@X c #E9D158",
"#X c #EAD458",
"$X c #EDD45B",
"%X c #EFD75E",
"&X c #FBD254",
"*X c #FFDA57",
"=X c #FFDE54",
"-X c #F3D75C",
";X c #FDD65C",
":X c #F2DB5C",
">X c #F3DD5F",
",X c #F7DC5F",
"<X c #F7DF5F",
"1X c #FFDA58",
"2X c #FFDD59",
"3X c #FFDF59",
"4X c #FFDC5B",
"5X c #FFDF5D",
"6X c #FFDF5E",
"7X c #FFE15F",
"8X c #F7D363",
"9X c #FBD663",
"0X c #F8D464",
"qX c #F6DD61",
"wX c #F9DC60",
"eX c #FFDA65",
"rX c #FFDE65",
"tX c #F7E162",
"yX c #FFE060",
"uX c #FEE063",
"iX c #FCE263",
"pX c #FFE765",
"aX c #FFE867",
"sX c #FFE869",
"dX c #FFEC69",
"fX c #FFED6D",
"gX c #FFEF6D",
"hX c #FFF16B",
"jX c #FFF36A",
"kX c #FFF56A",
"lX c #FFF06E",
"zX c #FFF36E",
"xX c #FFF86F",
"cX c #FFFC6F",
"vX c #FFFF6F",
"bX c #FFFF73",
"nX c #FFF974",
"mX c #FFFD75",
"MX c #FFFF75",
"NX c #FFFD76",
"BX c #FFFF77",
"VX c #FFFF7C",
"CX c #FFFF7D",
/* pixels */
"                                                                ",
"                                                                ",
"                                                                ",
"                                                                ",
"                                                                ",
"                                                                ",
"                            . 5 y ; .                           ",
"                        . 6 C [ G c f 5 .                       ",
"                      . 0 ` %.e.0.~ F x r .                     ",
"                      * ] e.j.m.G.x.) H M 1                     ",
"                    . l o.h.H.K.C.P.J.=.K m .                   ",
"                    - _  .V.'.OX+X#X+X`.=.W t                   ",
"                  . p ' y.6./.-XtXwXtX:X}.<.v &                 ",
"                  $ C #.v.6.(.6XsXhXaXaX,X[.| ,                 ",
"                  2 _ p.A.k.R.7XxXmXmXhXsX%Xb.g                 ",
"                  r E a.|. XS.7XkXmXCXmXgXqXL.z                 ",
"                  a W a.~.0X(.1XkXBXbXmXdXiX^.S &               ",
"                  s T ,.~.0XeX&XhXCXBXbX7XR.2.A &               ",
"                  y { ;.B.oX9XrX4XnXBX=XW.I.y.l                 ",
"                  5 { w.k.n. X{.;XQ.6X4X1X$XZ.h                 ",
"                  $ J +.u.f.N.F.Y.E.D.iX>X].q.<                 ",
"                  O d W 4.4.g.6.k.2..XE.U.M.J &                 ",
"                    = C O.4.c.y.,.^ k.) / Y 4                   ",
"                    X 7 I O.:.p.^ L  .! c i &                   ",
"                      . w Z X.$.#.P B b w .                     ",
"                          o 0 k j i 5 $ .                       ",
"                              . . .                             ",
"                                                                ",
"                                                                ",
"                                                                ",
"                                                                ",
"                                                                "
};
