/* XPM */
static char *output_onlinepngtools__21_1647270524[] = {
/* columns rows colors chars-per-pixel */
"50 45 223 2 ",
"   c None",
".  c black",
"X  c #030101",
"o  c #020202",
"O  c #070707",
"+  c #0C0505",
"@  c #0E0606",
"#  c #090909",
"$  c #110707",
"%  c #120809",
"&  c #130A0A",
"*  c #140909",
"=  c #14090A",
"-  c #170B0B",
";  c #180B0B",
":  c #190B0B",
">  c #190C0C",
",  c #1A0C0C",
"<  c #1F0E0D",
"1  c #1D0D0F",
"2  c #0B1419",
"3  c #0A171F",
"4  c #101010",
"5  c #161616",
"6  c #1D1610",
"7  c gray10",
"8  c gray11",
"9  c #220F0F",
"0  c #2D0C08",
"q  c #30110F",
"w  c #3D100B",
"e  c #231010",
"r  c #241111",
"t  c #261112",
"y  c #281212",
"u  c #2B1413",
"i  c #2B1414",
"p  c #2E1516",
"a  c #2F1616",
"s  c #211A1A",
"d  c #311617",
"f  c #321717",
"g  c #321718",
"h  c #341818",
"j  c #371B18",
"k  c #3A1A1B",
"l  c #3A1B1B",
"z  c #3F1D1E",
"x  c #2B2017",
"c  c #31241A",
"v  c #1A2226",
"b  c #202020",
"n  c gray14",
"m  c #2F2F2F",
"M  c #2C2E30",
"N  c #2C363C",
"B  c #343434",
"V  c #41110C",
"C  c #45120D",
"Z  c #49130D",
"A  c #461814",
"S  c #4B1A16",
"D  c #411A18",
"F  c #431D1C",
"G  c #411F1F",
"H  c #591810",
"J  c #651B13",
"K  c #601F17",
"L  c #6D1D14",
"P  c #67211B",
"I  c #722119",
"U  c #762218",
"Y  c #482122",
"T  c #4A2223",
"R  c #4B2B27",
"E  c #4A2A2A",
"W  c #522120",
"Q  c #532624",
"!  c #5B2420",
"~  c #5F2827",
"^  c #552728",
"/  c #5D2B2C",
"(  c #533A38",
")  c #563B3C",
"_  c #6A2723",
"`  c #642927",
"'  c #6D2A26",
"]  c #622D2A",
"[  c #602E2A",
"{  c #632E2E",
"}  c #622E2F",
"|  c #6B2A28",
" . c #782B26",
".. c #772D29",
"X. c #69312D",
"o. c #60382E",
"O. c #74332B",
"+. c #662F30",
"@. c #683031",
"#. c #6E3333",
"$. c #7C3936",
"%. c #763738",
"&. c #793839",
"*. c #7D3A3B",
"=. c #7C3F3B",
"-. c #674D38",
";. c #062E44",
":. c #0A3F5C",
">. c #384756",
",. c #2C5065",
"<. c #484040",
"1. c #574746",
"2. c #5A5A5A",
"3. c #5B5B5B",
"4. c #7C5D43",
"5. c #725959",
"6. c gray40",
"7. c #842317",
"8. c #842318",
"9. c #83261B",
"0. c #872418",
"q. c #962B1F",
"w. c #B02F1F",
"e. c #882A20",
"r. c #932C21",
"t. c #83302A",
"y. c #85342E",
"u. c #8E342E",
"i. c #8E3936",
"p. c #823C3D",
"a. c #8E3C3A",
"s. c #9C3831",
"d. c #9D3C37",
"f. c #9E3C37",
"g. c #923C39",
"h. c #9A3C38",
"j. c #A5372E",
"k. c #AA382F",
"l. c #BA3221",
"z. c #BC3222",
"x. c #BB3324",
"c. c #B13A2F",
"v. c #B73A2F",
"b. c #BF3C2F",
"n. c #A03C36",
"m. c #A43C35",
"M. c #A93C34",
"N. c #B03C33",
"B. c #B63C31",
"V. c #B73C31",
"C. c #B43C32",
"Z. c #B83C31",
"A. c #B93C31",
"S. c #C93624",
"D. c #C33728",
"F. c #C03C2F",
"G. c #C23C2F",
"H. c #C43C2E",
"J. c #CB3B2B",
"K. c #C83C2D",
"L. c #CB3C2D",
"P. c #CD3C2C",
"I. c #CF3C2C",
"U. c #D13825",
"Y. c #D73A26",
"T. c #D63A28",
"R. c #D13C2B",
"E. c #D23C2B",
"W. c #D43C2B",
"Q. c #D63C2A",
"!. c #D03C2C",
"~. c #DA3C29",
"^. c #D83C2A",
"/. c #D93C2A",
"(. c #DC3C29",
"). c #DD3C29",
"_. c #DE3C28",
"`. c #E03C28",
"'. c #964D3B",
"]. c #AD453F",
"[. c #B9563C",
"{. c #D24536",
"}. c #DD4D3F",
"|. c #874842",
" X c #924342",
".X c #964844",
"XX c #8B5644",
"oX c #9F5348",
"OX c #9F5C4F",
"+X c #AF514B",
"@X c #AB594E",
"#X c #B3574F",
"$X c #B75551",
"%X c #846347",
"&X c #986A50",
"*X c #BC6B58",
"=X c #B3715C",
"-X c #916B69",
";X c #CF5F57",
":X c #EA7F5C",
">X c #DC6A60",
",X c #C17961",
"<X c #D47463",
"1X c #CC8B6B",
"2X c #D8886B",
"3X c #DD8E6E",
"4X c #CF9A6F",
"5X c #E88B6C",
"6X c #E68B72",
"7X c #E69473",
"8X c #ED9F79",
"9X c #E5A57A",
"0X c #C4AC99",
"qX c #EFB080",
"wX c #F3B583",
"eX c #F5B987",
"rX c #F6BC8C",
"tX c #E9A29E",
"yX c #F3BDA0",
"uX c #F8CBA7",
"iX c #F3C2AD",
"pX c #FCEADB",
"aX c white",
/* pixels */
"                                                                                                    ",
"                                                                                                    ",
"                                                                                                    ",
"                                                                                                    ",
"                                                                                                    ",
"                                                                                                    ",
"                                                .                                                   ",
"                                              w C                                                   ",
"                                            . 8.w.0 .                                               ",
"                                            . 0.D.' k .                                             ",
"                                          . . 0.E.M.| e :                                           ",
"                                  . . . . . . 0._./.c.%.f . . .                                     ",
"                                y Y P I W i . 0.`.`.P.B.r.I W h .                                   ",
"                              . a @.j.G.m.` > U z.Y.`.`.`.E.m.` > %                                 ",
"                                  = ~ f.H.k.#.D Z z.`.`.`._.E.k.#.f .                               ",
"                                r z t.A.Q.P.N.e.8.S.`.`.`.`.`.P.N.A .                               ",
"                              % F a.b.`.`.`.`.`.`.`.`.`.`.`.`.`.`.H .                               ",
"                            = Q u.L./.`.`.`.`.`.`.`.`.`.`.`.`.`._.H .                               ",
"                            = Y ..A.P./.F.K.`._.`.`.`.`.`.`.`.!.A._ f =                             ",
"                              . g &.v.J.i.s.U.T.~.~._._._.~.~.V.p.*.} > .                           ",
"                                > r q.z.S q V  .d.d.A.`.V.d.d.g.p.Y r                               ",
"                                  . J 9.! ( 2.) / &.d.A.+Xg.{ { p.h .                               ",
"                                    . r +XtXaX6.> @.*.*.$X+Xi g p.h .                               ",
"                                  . ] @X2XiXaX0X&X|.@X1X<X+Xu % a 1                                 ",
"                                  . X.@X3XyXpXuX9X=X,X8X*X$.9 . .                                   ",
"                                    @ j #X6XrXeXwXwX5X>X_ + . .                                     ",
"                                      9 Q o.-.-.-.-.'.;Xy.E <.B .                                   ",
"                                        . . . . . # K `.B..X-X1..                                   ",
"                                            . . # n O.`./.{.;X=..                                   ",
"                                            . 4 b m R L [.:X5XXX.                                   ",
"                                            . 8 M N v . 4.4X4X%X.                                   ",
"                                              # 3 :.;.. 6 c c x                                     ",
"                                              . 2 ,.>.l - . .                                       ",
"                                              . 5 2.5.&.f .                                         ",
"                                              . O 7 s e :                                           ",
"                                                . . . .                                             ",
"                                                                                                    ",
"                                                                                                    ",
"                                                                                                    ",
"                                                                                                    ",
"                                                                                                    ",
"                                                                                                    ",
"                                                                                                    ",
"                                                                                                    ",
"                                                                                                    "
};
