/* XPM */
static char *output_onlinepngtools__17___1_1647016099[] = {
/* columns rows colors chars-per-pixel */
"50 45 256 2 ",
"   c None",
".  c black",
"X  c #060503",
"o  c #000304",
"O  c gray2",
"+  c #070707",
"@  c #0B0B0B",
"#  c #0F0808",
"$  c #090B0D",
"%  c #0C0C0C",
"&  c #110808",
"*  c #130A0A",
"=  c #160A0A",
"-  c #160B0B",
";  c #100C09",
":  c #130F0A",
">  c #180B0B",
",  c #190B0B",
"<  c #190C0C",
"1  c #1A0C0C",
"2  c #1C0D0C",
"3  c #1F0E0D",
"4  c #000A10",
"5  c #000D14",
"6  c #020F16",
"7  c #0B1419",
"8  c #09161D",
"9  c gray7",
"0  c gray8",
"q  c #151515",
"w  c #161616",
"e  c gray10",
"r  c #1B1B1B",
"t  c gray12",
"y  c #280A07",
"u  c #2B0B07",
"i  c #200E0F",
"p  c #2D0C08",
"a  c #320D08",
"s  c #30110F",
"d  c #3B100B",
"f  c #231010",
"g  c #221211",
"h  c #261112",
"j  c #2A1312",
"k  c #2B1413",
"l  c #2B1414",
"z  c #2E1514",
"x  c #2E1516",
"c  c #211812",
"v  c #2D1915",
"b  c #2E1C17",
"n  c #211A1A",
"m  c #311617",
"M  c #321717",
"N  c #341818",
"B  c #371818",
"V  c #361919",
"C  c #381A1A",
"Z  c #391A1B",
"A  c #3A1B1B",
"S  c #2E2319",
"D  c #2F2319",
"F  c #30231A",
"G  c #31241A",
"H  c #111E25",
"J  c gray14",
"K  c #282522",
"L  c #2D2723",
"P  c #2A2A2A",
"I  c #2C2C2C",
"U  c #2D2D2D",
"Y  c gray18",
"T  c #2F2F2F",
"R  c #342221",
"E  c #232D33",
"W  c #233037",
"Q  c #313131",
"!  c gray20",
"~  c #41110C",
"^  c #46130C",
"/  c #4A140D",
"(  c #4F1812",
")  c #431D1C",
"_  c #401E1E",
"`  c #421F1F",
"'  c #461E1D",
"]  c #561710",
"[  c #581710",
"{  c #591810",
"}  c #5B1810",
"|  c #5C1910",
" . c #5D211D",
".. c #61231E",
"X. c #64231C",
"o. c #782016",
"O. c #7C2116",
"+. c #722119",
"@. c #76251D",
"#. c #431F20",
"$. c #462021",
"%. c #482121",
"&. c #4B2323",
"*. c #4D2421",
"=. c #4F2423",
"-. c #522120",
";. c #512625",
":. c #522626",
">. c #542727",
",. c #512B27",
"<. c #572825",
"1. c #562828",
"2. c #562829",
"3. c #5D2B2C",
"4. c #453425",
"5. c #523E2C",
"6. c #533F2D",
"7. c #5E3D2F",
"8. c #463634",
"9. c #4B3F34",
"0. c #602725",
"q. c #6B2925",
"w. c #6C2A26",
"e. c #622E2F",
"r. c #652F2F",
"t. c #6E2B28",
"y. c #782B26",
"u. c #7E2F2A",
"i. c #7E2F2B",
"p. c #67302D",
"a. c #683031",
"s. c #6E3333",
"d. c #703431",
"f. c #703334",
"g. c #733536",
"h. c #7E3533",
"j. c #763738",
"k. c #773738",
"l. c #793839",
"z. c #7B393A",
"x. c #7F3A3B",
"c. c #534030",
"v. c #594433",
"b. c #5C4939",
"n. c #624534",
"m. c #002D47",
"M. c #003552",
"N. c #083D5A",
"B. c #173852",
"V. c #2C3940",
"C. c #024469",
"Z. c #04466B",
"A. c #084A6F",
"S. c #0A4C71",
"D. c #3A4862",
"F. c #2C5065",
"G. c #385973",
"H. c #4D4A47",
"J. c gray29",
"K. c #5A5A5A",
"L. c #725959",
"P. c #812317",
"I. c #84271C",
"U. c #91291D",
"Y. c #A42C1D",
"T. c #AD2E1F",
"R. c #8E342E",
"E. c #90352F",
"W. c #803B3C",
"Q. c #823C3D",
"!. c #873C3C",
"~. c #8A3C3B",
"^. c #8D3C3B",
"/. c #8E3C3A",
"(. c #9C3831",
"). c #9F3C37",
"_. c #933C39",
"`. c #913C3A",
"'. c #983C38",
"]. c #A32F22",
"[. c #BD3322",
"{. c #BF3322",
"}. c #B2382D",
"|. c #BF3C2F",
" X c #A43C35",
".X c #A53C35",
"XX c #A73C35",
"oX c #AD3C33",
"OX c #AA3C34",
"+X c #B33A30",
"@X c #B03C33",
"#X c #B63C31",
"$X c #B43C32",
"%X c #B83C31",
"&X c #BB3C30",
"*X c #BE3C30",
"=X c #CC3724",
"-X c #C93827",
";X c #C03C2F",
":X c #C73C2E",
">X c #C83C2D",
",X c #CB3C2D",
"<X c #CD3C2C",
"1X c #CF3C2C",
"2X c #D03825",
"3X c #D13825",
"4X c #DB3B27",
"5X c #DC3B27",
"6X c #D63A28",
"7X c #D13C2B",
"8X c #D33C2B",
"9X c #D43C2B",
"0X c #D63C2A",
"qX c #D73C2A",
"wX c #D03C2C",
"eX c #DB3C29",
"rX c #D83C2A",
"tX c #D93C2A",
"yX c #DC3C29",
"uX c #DD3C29",
"iX c #DF3C28",
"pX c #DE3C29",
"aX c #E03C28",
"sX c #9F432E",
"dX c #BF4538",
"fX c #844743",
"gX c #9B4843",
"hX c #9F5348",
"jX c #AF514B",
"kX c #80615E",
"lX c #97775D",
"zX c #A5685D",
"xX c #B56454",
"cX c #BA725B",
"vX c #B57773",
"bX c #CB4D41",
"nX c #DA655E",
"mX c #EB7B57",
"MX c #AA805C",
"NX c #AE825E",
"BX c #A1836B",
"VX c #BE8E67",
"CX c #C78569",
"ZX c #C38E68",
"AX c #D8886B",
"SX c #CF9A6F",
"DX c #E98767",
"FX c #E6886E",
"GX c #EB9A76",
"HX c #F1AB7F",
"JX c #F4B382",
"KX c #F5B683",
"LX c #F5B784",
"PX c #EEAC96",
"IX c #EDB1A5",
"UX c #F7C399",
/* pixels */
"                                                                                                    ",
"                                                                                                    ",
"                                                                                                    ",
"                                                                                                    ",
"                                                                                                    ",
"                                                                                                    ",
"                                                      .                                             ",
"                                                    a / a                                           ",
"                                                  . [ 4X[ .                                         ",
"                                            . . y o.T.aX{ .                                         ",
"                                          u d d | {.0X:X( .                                         ",
"                                    . . . [ =X=X2X5X*X~.B . . . . . .                               ",
"                                  . { O.O.Y.aXaX0X#Xu.Z ` -.+.O.o. .` =                             ",
"                                * 1 U.aXaXaXaXaX7X Xq.p q. X7XtX1XE.1.1                             ",
"                              . m s.}.aXaXaXaXaXuX0X-X{.-X0XuX;X/.' *                               ",
"                            = Z q.@X1XaXaXaXaXaXaXuXaXaXuX0X&X).Q.B . .                             ",
"                          . 1 a.OXaXaXaXaXaXaXaXuX0XtXuXaXwX X^./.` & & &                           ",
"                          . 1 a. XaXaXaXaXaXaXaX7X X#XaXaXuX1X>X>XR.r.r.#..                         ",
"                          x $.g.'.#XwXaXaXaXaX>XoX/.OXuXuXtX;X&X&X'.k.1.B .                         ",
"                        . &.l.Q.W.l.+XuXaXaXaX XQ.l.(.2X6X:X`.x.l.l.e.1 .                           ",
"                          i Z d.3.h t.OXwXaXuXOXf.B m ~ y.'.!.3.h h f                               ",
"                            > $.;.*.;.0.I.].*Xu.;.*.*.*.;.<.>.;.*.i .                               ",
"                              . <.nX<.. . B Q.B k jXnXnX<.. . <.nX<..                               ",
"                              . 7.GX7.2 d.p.x p.jXAXPXx vXd.2 7.GX7..                               ",
"                              . c.NX4.v xXzXJ.zXAXHXUXJ.IXxXv 4.NX6..                               ",
"                                  ; X G ZXUXUXUXJXKXUXUXUXZXF X ;                                   ",
"                                . . 9 L v.BXLXLXKXLXLXLXBXn.,...P.^                                 ",
"                              x g % J I 0 c.VXVXVXVXVXVXb.R h.#XaX@.x                               ",
"                          . k gXfXY Q Q T K c c c c c c H.L.dXpXuXbXgXj .                           ",
"                          . b cXCXlX9.S Q Y r r q + % H T 8.q.sXmXDXcXb .                           ",
"                          . S MXSXSX9.$ E W V.! W 8 H ! H 4 o 5.SXSXMXD .                           ",
"                              S G G ; 5 C.S.S.S.A.C.Z.S.Z.M.5 : G G D                               ",
"                                . . . 7 F.G.D.B.m.m.B.D.G.F.7 . . .                                 ",
"                                    . q K.L.k.m . . m k.L.K.q .                                     ",
"                                    . + r n g ,     , h n r + .                                     ",
"                                      . . . .         . . . .                                       ",
"                                                                                                    ",
"                                                                                                    ",
"                                                                                                    ",
"                                                                                                    ",
"                                                                                                    ",
"                                                                                                    ",
"                                                                                                    ",
"                                                                                                    ",
"                                                                                                    "
};
