/* XPM */
static char *output_onlinepngtools__22_1647270457[] = {
/* columns rows colors chars-per-pixel */
"50 45 241 2 ",
"   c None",
".  c black",
"X  c #020000",
"o  c #020101",
"O  c #030202",
"+  c #050202",
"@  c gray2",
"#  c #090404",
"$  c #0E0606",
"%  c #0E0A07",
"&  c gray4",
"*  c #0C0C0C",
"=  c #0E0E0E",
"-  c #100707",
";  c #170706",
":  c #110808",
">  c #140909",
",  c #150A0A",
"<  c #170A0A",
"1  c #170B0B",
"2  c #190C0B",
"3  c #190C0C",
"4  c #1A0C0C",
"5  c #1B0C0C",
"6  c #1F0E0E",
"7  c #1F0F0F",
"8  c gray7",
"9  c gray8",
"0  c gray9",
"q  c #131618",
"w  c #250A07",
"e  c #260A07",
"r  c #210C0B",
"t  c #260C09",
"y  c #200E0E",
"u  c #2E0D09",
"i  c #34110D",
"p  c #39110C",
"a  c #39120E",
"s  c #241111",
"d  c #251111",
"f  c #261211",
"g  c #271212",
"h  c #291110",
"j  c #281312",
"k  c #2C1313",
"l  c #2E1514",
"z  c #2F1515",
"x  c #321210",
"c  c #301616",
"v  c #311717",
"b  c #321617",
"n  c #331816",
"m  c #331718",
"M  c #331818",
"N  c #361918",
"B  c #391B1B",
"V  c #3C1C1D",
"C  c #2C2118",
"Z  c #30231B",
"A  c #36291D",
"S  c #061D2B",
"D  c #0E2633",
"F  c #112632",
"G  c gray14",
"H  c #252525",
"J  c gray15",
"K  c #2C2C2C",
"L  c #342323",
"P  c #312827",
"I  c #2F3031",
"U  c #2F3234",
"Y  c #2C333F",
"T  c #2F373C",
"R  c #313131",
"E  c #323232",
"W  c #343434",
"Q  c #3C3636",
"!  c #50160F",
"~  c #491916",
"^  c #411E1E",
"/  c #421F1F",
"(  c #511914",
")  c #591810",
"_  c #5C1911",
"`  c #641B12",
"'  c #6F261F",
"]  c #79271F",
"[  c #452020",
"{  c #462522",
"}  c #492122",
"|  c #492222",
" . c #542321",
".. c #512523",
"X. c #552725",
"o. c #592926",
"O. c #5B2A2B",
"+. c #5D2B2C",
"@. c #443325",
"#. c #44322C",
"$. c #4B302E",
"%. c #5B3B2E",
"&. c #5C382D",
"*. c #4D3132",
"=. c #503C3B",
"-. c #533D3C",
";. c #632A2A",
":. c #612C2A",
">. c #612D2E",
",. c #642E2F",
"<. c #702B27",
"1. c #762D29",
"2. c #792D29",
"3. c #6D322F",
"4. c #68342E",
"5. c #7A302C",
"6. c #78312E",
"7. c #683031",
"8. c #6B3030",
"9. c #6B3132",
"0. c #643F3D",
"q. c #773130",
"w. c #773230",
"e. c #773734",
"r. c #753637",
"t. c #7B393A",
"y. c #5E4532",
"u. c #604734",
"i. c #6C473E",
"p. c #0E4A6B",
"a. c #2A607E",
"s. c #4B4540",
"d. c #7B5354",
"f. c #78615F",
"g. c #736C6C",
"h. c #777A7B",
"j. c #8D271B",
"k. c #8B2D24",
"l. c #85302A",
"z. c #8D3028",
"x. c #89332E",
"c. c #993026",
"v. c #98362F",
"b. c #863633",
"n. c #8A3734",
"m. c #833D39",
"M. c #823C3B",
"N. c #803B3C",
"B. c #823C3D",
"V. c #863C3C",
"C. c #8B3C3B",
"Z. c #893F3B",
"A. c #8D3C3A",
"S. c #943832",
"D. c #9E3C37",
"F. c #903C3A",
"G. c #963C39",
"H. c #B12F20",
"J. c #AE3021",
"K. c #A8362B",
"L. c #AD362A",
"P. c #B33020",
"I. c #B63121",
"U. c #BB3323",
"Y. c #B83628",
"T. c #B6392D",
"R. c #BF3C2F",
"E. c #A43C35",
"W. c #A63C35",
"Q. c #A73C35",
"!. c #A93C34",
"~. c #B03C33",
"^. c #B13C33",
"/. c #B23C32",
"(. c #B33C32",
"). c #B73C31",
"_. c #B93C30",
"`. c #BC3C30",
"'. c #BE3C30",
"]. c #CC3725",
"[. c #C1392A",
"{. c #C73929",
"}. c #C23C2F",
"|. c #CB3B2B",
" X c #C83C2D",
".X c #CA3C2D",
"XX c #CC3C2C",
"oX c #CD3C2C",
"OX c #CE3C2C",
"+X c #D43B29",
"@X c #D33C2B",
"#X c #D43C2B",
"$X c #D53C2B",
"%X c #D63C2A",
"&X c #D03C2C",
"*X c #DA3C29",
"=X c #DB3C29",
"-X c #DF3C28",
";X c #E03C28",
":X c #B04038",
">X c #8A4542",
",X c #9D5247",
"<X c #9F504A",
"1X c #AF4C48",
"2X c #AF524C",
"3X c #A65651",
"4X c #BA5650",
"5X c #BF5B55",
"6X c #A26A54",
"7X c #AC6957",
"8X c #B16353",
"9X c #B6735D",
"0X c #BE765F",
"qX c #CB6059",
"wX c #C16E5B",
"eX c #DA665E",
"rX c #DA6F62",
"tX c #DD6F63",
"yX c #B0845F",
"uX c #D2866A",
"iX c #D8876A",
"pX c #D88E6E",
"aX c #D89872",
"sX c #E4866D",
"dX c #E78C70",
"fX c #EA9776",
"gX c #EB9976",
"hX c #DCA477",
"jX c #EEA27A",
"kX c #C5A082",
"lX c #F4B683",
"zX c #F4B684",
"xX c #F5B784",
"cX c #F5B885",
"vX c #F6C093",
"bX c #F5C6AD",
"nX c #D2D1CF",
"mX c #F2C5C1",
"MX c #FADBC2",
"NX c #F8DACA",
"BX c #F1E7E0",
/* pixels */
"                                                                                                    ",
"                                                                                                    ",
"                                                                                                    ",
"                                                                                                    ",
"                                                                                                    ",
"                                                                                                    ",
"                                            .                                                       ",
"                                            e                                                       ",
"                                        . ! H.! .                                                   ",
"                                        . ) ;X] v <                                                 ",
"                                        + _ ;X!.7.5 .                                               ",
"                                  . . 1 } z.;XXXc.t . . . . .                                       ",
"                                4 d i ( x.).;X;XU.~ d d i p h y                                     ",
"                              . v r.K.].+X=X;X;X|.n.r.r.K.Y.b.} .                                   ",
"                            < V <.^.oX;X;X;X;X}.W.C.G.^.^.v. .z                                     ",
"                          . 4 7.!.;X;X;X;X;X;X^.F.A.^.-X^.w.k :                                     ",
"                          . 4 7.W.;X;X;X;X;X;X@X X X@X;X@XT.6.[ .                                   ",
"                          . r l.'.;X;X;X;X;X;X;X;X;X;X;X;X+X^.2.m y                                 ",
"                          . u I.;X;X;X;X;X;X;X;X;X;X;X-X-X;X-X_.t.N .                               ",
"                        . B ;.S.'.;X;X;X;X;X;X;X;X;X XW. X@X^.1.v 7                                 ",
"                        . ^ 7.t.D. X XXX-X+X X X[.J.k.>.L.{.6.^ .                                   ",
"                          $ d 9.V.A.A.D.&XR.A.A.w.x ; - j.I.p $                                     ",
"                          . 4 7.7.^ M.1X:XD.B.O.*.g.f.3.' ` e                                       ",
"                          . 4 +.[ . M.qX<X>XB.{ s.nXmXtX4.2                                         ",
"                              6 < . M.rXpX9XB.6XkXBXNXjXwXC.j                                       ",
"                              . . . :.,XiXuX7XaXvXMXbXgX8Xe.j                                       ",
"                                    . z 2XsXlXxXcXcXfXeXo..                                         ",
"                                  . 9 P i.i.u.y.u.u.%.X.N                                           ",
"                                d n $.-.Q G * @ . . . .                                             ",
"                              . ..4X5X3X=.R K 8 . . .                                               ",
"                              . &.dXdX0X#.J W G 9 @ .                                               ",
"                              . y.hXhXyXC q T U J * .                                               ",
"                                Z @.@.A % S p.D =                                                   ",
"                                  . . # d Y a.F .                                                   ",
"                                    . 4 >.d.h.R .                                                   ",
"                                      < M L R 9 .                                                   ",
"                                        . . . . .                                                   ",
"                                                                                                    ",
"                                                                                                    ",
"                                                                                                    ",
"                                                                                                    ",
"                                                                                                    ",
"                                                                                                    ",
"                                                                                                    ",
"                                                                                                    "
};
