/* XPM */
static char *output_onlinepngtools__23_1647270488[] = {
/* columns rows colors chars-per-pixel */
"50 45 140 2 ",
"   c None",
".  c #000000",
"X  c #0A0505",
"o  c #0E0807",
"O  c #0E0B09",
"+  c #130706",
"@  c #120908",
"#  c #1D0E0E",
"$  c #000D14",
"%  c #0B0F11",
"&  c #03141E",
"*  c #0F131A",
"=  c #121212",
"-  c #1C1B1B",
";  c #210F0F",
":  c #27100F",
">  c #37100C",
",  c #3E100B",
"<  c #231111",
"1  c #2B1413",
"2  c #211912",
"3  c #251D1D",
"4  c #311717",
"5  c #36191A",
"6  c #3C1C1D",
"7  c #2E2219",
"8  c #31241A",
"9  c #001623",
"0  c #141921",
"q  c #1B282F",
"w  c #252525",
"e  c #2C2C2C",
"r  c #3E2E21",
"t  c #322E2E",
"y  c #273339",
"u  c #313131",
"i  c #3D3B3B",
"p  c #43120C",
"a  c #49140D",
"s  c #50150E",
"d  c #481915",
"f  c #441E1E",
"g  c #491F1E",
"h  c #541E1A",
"j  c #56211F",
"k  c #5E211D",
"l  c #6B211A",
"z  c #772117",
"x  c #7C2116",
"c  c #7C251B",
"v  c #441F20",
"b  c #4B2221",
"n  c #492728",
"m  c #532625",
"M  c #5A2321",
"N  c #5D2821",
"B  c #562828",
"V  c #5C2A2B",
"C  c #493628",
"Z  c #4E3B2A",
"A  c #503428",
"S  c #493D33",
"D  c #642E2E",
"F  c #702C29",
"G  c #792F2C",
"H  c #6D312E",
"J  c #662F30",
"K  c #6B3232",
"L  c #753636",
"P  c #763738",
"I  c #7D393A",
"U  c #584230",
"Y  c #634132",
"T  c #75453B",
"R  c #7B4C3E",
"E  c #002D47",
"W  c #06304A",
"Q  c #0A324C",
"!  c #2C3940",
"~  c #2D425C",
"^  c #344158",
"/  c #004064",
"(  c #094465",
")  c #06486D",
"_  c #0A4C71",
"`  c #394760",
"'  c #3A4862",
"]  c #6D6A69",
"[  c #872418",
"{  c #8A2519",
"}  c #94281A",
"|  c #A22B1D",
" . c #9B3025",
".. c #92352F",
"X. c #933928",
"o. c #863734",
"O. c #8A3734",
"+. c #833C3D",
"@. c #8C3C3B",
"#. c #9B3C37",
"$. c #953C39",
"%. c #9A3C38",
"&. c #AB382E",
"*. c #BC3728",
"=. c #B53A2F",
"-. c #BE3C2F",
";. c #A23C35",
":. c #AC3C33",
">. c #B53C32",
",. c #BC3C30",
"<. c #C43625",
"1. c #CA3624",
"2. c #C33C2F",
"3. c #CB3C2C",
"4. c #D53926",
"5. c #D43C2A",
"6. c #DC3C29",
"7. c #E03C28",
"8. c #8C4945",
"9. c #984642",
"0. c #9C4847",
"q. c #A34C4A",
"w. c #B04C40",
"e. c #A2584E",
"r. c #987152",
"t. c #98775D",
"y. c #A2644F",
"u. c #AA6053",
"i. c #A77D5A",
"p. c #A97D5B",
"a. c #B57059",
"s. c #CC4C40",
"d. c #D6635C",
"f. c #E37553",
"g. c #AC815C",
"h. c #CC876A",
"j. c #C39169",
"k. c #CF9A6F",
"l. c #E98666",
"z. c #E69674",
/* pixels */
"                                                                                                    ",
"                                                                                                    ",
"                                                                                                    ",
"                                                                                                    ",
"                                                                                                    ",
"                                                                                                    ",
"                                          .                                                         ",
"                                        , p                                                         ",
"                                      . [ | +                                                       ",
"                                      . { 1.} s . .                                                 ",
"                                    . . [ 3.6.[ > : #                                               ",
"                            . . . . . . m ;.5.4.*.o.f . . .                                         ",
"                          @ f k x x l b f M #.3.5.-. .z j 5 .                                       ",
"                          @ B ..3.6.2.$.h d O.-.7.7.6.6.:.D #                                       ",
"                            @ g $.3.6.5.<.<.5.5.7.7.7.7.5.&.K < .                                   ",
"                          . . 5 +.;.2.6.7.7.7.7.7.7.7.7.7.,.+.B 4 X                                 ",
"                        o @ @ f @.$.:.5.7.7.7.7.7.7.7.7.7.-.@.+.V X                                 ",
"                      . 5 D D ..3.3.5.7.7.7.7.7.7.7.7.7.7.6.3.#.B X                                 ",
"                        4 B P %.,.5.7.7.7.7.7.7.7.7.7.7.7.3.,.$.K 6 <                               ",
"                          @ V I I -.6.7.7.7.7.7.7.7.7.7.6.>.I I I I 5 .                             ",
"                            < < 1 G >.7.7.7.7.7.7.7.7.6.>.F < D J 1 #                               ",
"                            . : m L $.,.5.7.7.7.7.7.7.5.%.K b m f X                                 ",
"                            . V d.0.+.+.,.6.7.6.7.7.7.5.#.q.d.b .                                   ",
"                            . Y z.e.+.I $.>.6.2.>.5.2.;.@.u.z.A .                                   ",
"                            . U p.T K +.+.$.,.;.@.>.;.I K R g.C                                     ",
"                                O X 4 I +.+.+.+.+.@.+.P 1 X O                                       ",
"                              a c k b 5 J +.+.+.+.+.V 5 3 * . .                                     ",
"                            1 c 6.:.K - n J D J J J 6 = e w O 1 1                                   ",
"                          # 9.s.6.5.w.] t @ @ @ @ @ - u u y e 8.@.o                                 ",
"                        . < a.l.f.X.N S w - - - - - w u - U t.h.y.o                                 ",
"                          2 p.k.j.r . & q ! ! ! y ! ! y % Z k.k.r.O                                 ",
"                            7 8 7 O 9 / _ _ _ _ _ _ _ ( & @ 8 8 7                                   ",
"                              . . . 0 ` ' ~ W E Q ~ ` ^ * . . .                                     ",
"                                  . 1 L P B o . # D P K # .                                         ",
"                                  . X < < #       ; ; # X .                                         ",
"                                    . . .         . . . .                                           ",
"                                                                                                    ",
"                                                                                                    ",
"                                                                                                    ",
"                                                                                                    ",
"                                                                                                    ",
"                                                                                                    ",
"                                                                                                    ",
"                                                                                                    ",
"                                                                                                    "
};
