/* XPM */
static char *output_onlinepngtools__7_1647006337[] = {
/* columns rows colors chars-per-pixel */
"32 32 224 2 ",
"   c None",
".  c #000000",
"X  c #0A0100",
"o  c #150100",
"O  c #1B0200",
"+  c #120800",
"@  c #090714",
"#  c #250100",
"$  c #2C0200",
"%  c #2D0800",
"&  c #330300",
"*  c #3C0500",
"=  c #3B0A00",
"-  c #3C1200",
";  c #351701",
":  c #2D1200",
">  c #120E36",
",  c #0F0E2D",
"<  c #440200",
"1  c #430900",
"2  c #4B0B00",
"3  c #4B0400",
"4  c #530D00",
"5  c #580300",
"6  c #441200",
"7  c #491800",
"8  c #551400",
"9  c #531C00",
"0  c #5A1D00",
"q  c #5C1400",
"w  c #641E00",
"e  c #681A00",
"r  c #4B2000",
"t  c #4B2A00",
"y  c #5D2400",
"u  c #582700",
"i  c #6A2801",
"p  c #643400",
"a  c #6A3704",
"s  c #723202",
"d  c #7B3A01",
"f  c #7B3608",
"g  c #732A00",
"h  c #694B0E",
"j  c #7A4601",
"k  c #7A4111",
"l  c #6C4E24",
"z  c #7F642A",
"x  c #17134B",
"c  c #191651",
"v  c #1B1759",
"b  c #1D1967",
"n  c #1F1C70",
"m  c #231D7E",
"M  c #201C73",
"N  c #65666D",
"B  c #883C01",
"V  c #843F11",
"C  c #8A4807",
"Z  c #984A00",
"A  c #875600",
"S  c #985602",
"D  c #874B1C",
"F  c #995A17",
"G  c #934F18",
"H  c #A65903",
"J  c #A35B14",
"K  c #986505",
"L  c #976914",
"P  c #9F7218",
"I  c #936D06",
"U  c #AD6306",
"Y  c #AD640B",
"T  c #A26B06",
"R  c #B16503",
"E  c #B2690C",
"W  c #B66907",
"Q  c #BC740C",
"!  c #BB7405",
"~  c #AA6314",
"^  c #A76719",
"/  c #B36D17",
"(  c #BA7715",
")  c #945822",
"_  c #8F5523",
"`  c #9C672B",
"'  c #986830",
"]  c #AB7826",
"[  c #B47B2D",
"{  c #B57927",
"}  c #A67537",
"|  c #B47E33",
" . c #B27A36",
".. c #AB6F20",
"X. c #C57C02",
"o. c #C27D13",
"O. c #C27918",
"+. c #9E7C48",
"@. c #AC7945",
"#. c #BD831D",
"$. c #BB8517",
"%. c #AE8526",
"&. c #BA862A",
"*. c #B8922F",
"=. c #B68233",
"-. c #BA8234",
";. c #BD8936",
":. c #BB853B",
">. c #BD8A3B",
",. c #B78539",
"<. c #AC8231",
"1. c #CD8303",
"2. c #CE8802",
"3. c #C2800E",
"4. c #C9840C",
"5. c #CE8B0D",
"6. c #D48C07",
"7. c #D89507",
"8. c #C38414",
"9. c #C3831B",
"0. c #CB8D1C",
"q. c #CB8714",
"w. c #D99717",
"e. c #E29A09",
"r. c #DCA01A",
"t. c #ECA602",
"y. c #E9A708",
"u. c #F1B204",
"i. c #E9AB14",
"p. c #EDB21B",
"a. c #F3BA14",
"s. c #C38A2B",
"d. c #C68826",
"f. c #CB932C",
"g. c #C99227",
"h. c #D29726",
"j. c #C28D32",
"k. c #C38E3C",
"l. c #CA8A3B",
"z. c #C39233",
"x. c #C3933C",
"c. c #C9963B",
"v. c #CA9736",
"b. c #D59737",
"n. c #E2983A",
"m. c #DAA229",
"M. c #D1A538",
"N. c #F7BA2C",
"B. c #E7AB3C",
"V. c #F6B837",
"C. c #EBB42E",
"Z. c #FCD534",
"A. c #FFEA3E",
"S. c #9F8452",
"D. c #BA8B44",
"F. c #BC934A",
"G. c #AB8852",
"H. c #BB8E5A",
"J. c #B7945C",
"K. c #A6864C",
"L. c #BB9F68",
"P. c #B7A574",
"I. c #C78B45",
"U. c #C39543",
"Y. c #CA9C42",
"T. c #CB9D4B",
"R. c #C69648",
"E. c #D39A4B",
"W. c #C99851",
"Q. c #DA9D5A",
"!. c #C9A14A",
"~. c #D3A54B",
"^. c #D8A847",
"/. c #CCA453",
"(. c #D4A855",
"). c #DCB45A",
"_. c #F3AB44",
"`. c #E7B64F",
"'. c #F3B647",
"]. c #E8AA55",
"[. c #FBBE59",
"{. c #E8B053",
"}. c #C99B67",
"|. c #C6A36F",
" X c #D9B468",
".X c #CCA974",
"XX c #D8B37A",
"oX c #ECBC63",
"OX c #EAB76A",
"+X c #FABC69",
"@X c #E9BC79",
"#X c #EBA86B",
"$X c #F7C54A",
"%X c #FDC856",
"&X c #FFDC52",
"*X c #DDC270",
"=X c #FEC16C",
"-X c #FAC766",
";X c #FFD665",
":X c #E8CC79",
">X c #FCC777",
",X c #FCD978",
"<X c #E6D471",
"1X c #FFE77D",
"2X c #FFF068",
"3X c #291E83",
"4X c #361B8F",
"5X c #3B2196",
"6X c #2D2189",
"7X c #44269A",
"8X c #513598",
"9X c #4728A2",
"0X c #CCAE85",
"qX c #FCD988",
"wX c #FDDC93",
"eX c #F3CA8C",
"rX c #FFE586",
"tX c #FFEB83",
"yX c #FFF88A",
"uX c #FFE796",
"iX c #FFF19B",
"pX c #FFF8A7",
"aX c #FFFBB8",
"sX c #FFEDA6",
/* pixels */
"    @ , , x x v b n M M m m 3X3Xm m m 3X6X4X4X5X7X7X9X9X9X7X8X  ",
"  . ; l L %.K.Y.^.J.^.(.|.J.H.|.).)..X/. X.XH.}.XX:X<XeX*XP.N 9X",
". + a F.d.g.oX`.[.,X-X%XqXQ.Q.wX-X;XuX=X=XuX).#XsXtXtXpXtXrX0X5X",
". - K r.).g.V.-X[.&XuX].;XwX=XrXwX+X,XuX>X,XwX1XyXaXiXyXpXtX:X5X",
". = S 2.8.9.a.B.`.Z.%X].$X+X+X$X+X+X[.+X>X%X-X,X2XyXyX2X1XrX<X6X",
". - I P ^ D.c.OXwX-XoX:X(.I.E.T.c.].E.^.-X>XqXiXiXwXpXiXpXaX0X3X",
". & K A C / [ y.V.%.X.w.| R ( ] X.7.%.2.7.] 1.$X,X-X,XuX&XyXXXm ",
". o i A g Z >.q.4.U.$.o.U.H Y R.Q 3.T.8.$.Y.! ! (._.-XiX2X;XXXn ",
". O p I I a G G.j.I.I.j.`. Xz.m.T.j.h.~.x.B. X&.b.,XeX#XeX@X}.m ",
". X 0 H C q W C / X.J ( t.9.$.t.{ #.t.8.#.t.9.( t.h.:._.I.].E.b ",
". . 0 p j L F  .U.^ j.Y.#.U.Y.d...x.#.c.!.&.j.I.#.=.OXW.@X>X@.b ",
". . 5 y e ( R.X.O.k.7.m.s.w.C.| R O.=.7.C.x.Y O. .U _.qX_.[.}.b ",
". . * 9 8 H l.E E k.4.4.>.5.5.| H E | 5.7.>.E W =.~ O.OXn.n.J.c ",
". . # * u ^ [ ,.j.g.T.&.f./.[ I.| [ | R.' D @.) ^  .c.#XOXoXF.c ",
". . o < : S 6.~ 0.u.3.o.u.0.Y 1./ ~ 1.O.k A f D H C d.V.b.'.M.c ",
". . & $ t ;.[ >.(.s.x./.g.U.R.] W.W.[ k.K.D @.F.F } ].].@XqXD.c ",
". . X u 5 S (.1.4.Y.X.X.T.H Y (.Z H D.g s D.B B D.H ( >XV.V.L.c ",
". . X 6 2 Z k.7.6.;.2.2.x.! U I.H R } s d ` C B } R ( +XN.V.J.c ",
". . % j p ] ~.j.z.Y.c.=.}  .&.v.I.[ k.} ` >.} [ ).| l.,X:X-XJ.c ",
". . 2 C a ! a.f.9.u.d.V Y ) 0.u.0.J 6.d.G U F 4.a.g.h.A.[.'.M.c ",
". . * 4 7 K w.s.s.5.&._ C ' s.5.{ ..E [ ` C _ &.4.&.b.V.{.{.<.> ",
". . y 7 i K ~.0.^.k./ l.>.d.Q.U./ E.;./ l.k.w.).U.o.`.oXB.-XG.> ",
". X q = w B g.e.7.[ W R [ Q Q U.H Q | ! Q -.6.7.z.7.p.E.i.C.+.> ",
". . < 1 6 t $.^.c./.;.[ :.-.[ !.:.-.c.-.| T.v.s.I.v.^. X{.(.S.> ",
". . # 3 * * S *.0.p.^.J 4.| ( y.f.( i.f.9.i.Y.J q. .$.C.~.8.%., ",
". . & & & 2 4 p T 6.b...W :.f.7.d.d.7.f.f.e.b.L Z F $.1.$.#.K @ ",
". . 0 1 O $ 6 $ 9 a K *.] $.z.*.( *.*.&.!.L A A A p C ] ^ D.' @ ",
". . e # O o $ < * & 8 0 7 s i u q i 1 i d 9 d C p 8 q j Z S h . ",
". . * 3 o o 1 & & r 1 * r = & 6 & * 7 - 1 r 2 0 p - 6 A d d h . ",
". . X 1 3 $ < * 1 w 2 = i 2 # < & = w 8 # < & # 3 0 4 i s j t . ",
". . . . . . . . . X . . X . . . . . X . . . . . . . . O O O . . ",
"  . . . . . . . . . . . . . . . . . . . . . . . . . . . . . .   "
};
